<svg version="1.1" id="Layer_1" xmlns="http://www.w3.org/2000/svg" xmlns:xlink="http://www.w3.org/1999/xlink" x="0px" y="0px"
	 width="100%" viewBox="0 0 109 130" enable-background="new 0 0 109 130" xml:space="preserve">
<path fill="#FDFDFD" opacity="1.000000" stroke="none" 
	d="
M1.000000,52.000000 
	C1.000000,34.666668 1.000000,17.833338 1.000000,1.000005 
	C37.333328,1.000003 73.666656,1.000003 109.999985,1.000002 
	C109.999992,44.333324 109.999992,87.666649 110.000000,130.999969 
	C73.666679,130.999985 37.333366,130.999985 1.000024,131.000000 
	C1.000000,104.833336 1.000000,78.666664 1.000000,52.000000 
M68.961914,116.133507 
	C68.692970,113.697128 68.424034,111.260757 68.155663,108.829506 
	C78.758232,105.864922 81.319458,99.091400 79.430328,90.751854 
	C82.928902,87.849777 86.986359,85.852524 88.799927,82.602959 
	C90.692795,79.211311 90.424416,74.613472 91.202423,69.931938 
	C91.432877,69.851974 92.708511,69.498489 93.911430,68.977219 
	C100.850784,65.970108 103.796585,57.790989 100.412415,51.020275 
	C97.061241,44.315575 89.128365,41.780144 82.639542,45.435211 
	C79.241470,47.349297 75.997208,47.303364 72.824844,45.082111 
	C68.969109,42.382362 65.158188,42.383934 61.240868,44.967518 
	C60.399487,45.522427 59.320156,45.716549 58.262489,46.109550 
	C58.262489,42.675110 58.262489,39.715233 58.262489,36.779205 
	C70.341492,35.657784 74.813286,32.231323 73.657310,25.128458 
	C72.526093,18.177706 66.945709,15.432069 58.408928,17.626019 
	C56.522285,5.482413 49.435711,1.668788 34.147003,4.569520 
	C32.927925,24.738241 34.228920,26.364075 53.568161,28.785515 
	C54.725521,31.870007 53.614853,32.962730 50.394058,32.799171 
	C46.633583,32.608204 42.855980,32.754559 38.932278,32.754559 
	C39.052940,34.191898 39.054077,35.707039 39.199570,35.721031 
	C44.022984,36.184875 48.860207,36.505108 53.745422,36.849987 
	C53.745422,40.034702 53.745422,42.945801 53.745422,45.961334 
	C53.047909,45.907391 52.431931,46.050545 52.110298,45.806221 
	C47.385208,42.216915 43.015270,42.661053 37.850365,45.562538 
	C35.608238,46.822094 31.734842,45.335339 28.638048,44.862350 
	C26.460554,44.529781 24.214703,43.049007 22.222507,43.388874 
	C15.395498,44.553562 10.617020,49.890518 10.046991,56.163574 
	C9.511412,62.057526 13.482772,67.305832 20.345272,69.781639 
	C20.940649,69.996429 21.524223,70.243927 22.079559,70.462936 
	C19.895626,81.142593 22.233652,85.252472 31.763729,89.393219 
	C32.541069,94.063789 32.226276,98.572975 34.118744,101.779434 
	C36.091206,105.121445 40.192249,107.207169 43.623173,110.058693 
	C43.524277,111.797226 42.890133,114.493187 43.322529,117.005585 
	C44.408253,123.314217 49.836807,127.855583 55.795521,128.004684 
	C61.738770,128.153397 66.463135,124.133629 68.961914,116.133507 
z"/>
<path fill="#0A0A0A" opacity="1.000000" stroke="none" 
	d="
M68.882851,116.535004 
	C66.463135,124.133629 61.738770,128.153397 55.795521,128.004684 
	C49.836807,127.855583 44.408253,123.314217 43.322529,117.005585 
	C42.890133,114.493187 43.524277,111.797226 43.623173,110.058693 
	C40.192249,107.207169 36.091206,105.121445 34.118744,101.779434 
	C32.226276,98.572975 32.541069,94.063789 31.763729,89.393219 
	C22.233652,85.252472 19.895626,81.142593 22.079559,70.462936 
	C21.524223,70.243927 20.940649,69.996429 20.345272,69.781639 
	C13.482772,67.305832 9.511412,62.057526 10.046991,56.163574 
	C10.617020,49.890518 15.395498,44.553562 22.222507,43.388874 
	C24.214703,43.049007 26.460554,44.529781 28.638048,44.862350 
	C31.734842,45.335339 35.608238,46.822094 37.850365,45.562538 
	C43.015270,42.661053 47.385208,42.216915 52.110298,45.806221 
	C52.431931,46.050545 53.047909,45.907391 53.745422,45.961334 
	C53.745422,42.945801 53.745422,40.034702 53.745422,36.849987 
	C48.860207,36.505108 44.022984,36.184875 39.199570,35.721031 
	C39.054077,35.707039 39.052940,34.191898 38.932278,32.754559 
	C42.855980,32.754559 46.633583,32.608204 50.394058,32.799171 
	C53.614853,32.962730 54.725521,31.870007 53.568161,28.785515 
	C34.228920,26.364075 32.927925,24.738241 34.147003,4.569520 
	C49.435711,1.668788 56.522285,5.482413 58.408928,17.626019 
	C66.945709,15.432069 72.526093,18.177706 73.657310,25.128458 
	C74.813286,32.231323 70.341492,35.657784 58.262489,36.779205 
	C58.262489,39.715233 58.262489,42.675110 58.262489,46.109550 
	C59.320156,45.716549 60.399487,45.522427 61.240868,44.967518 
	C65.158188,42.383934 68.969109,42.382362 72.824844,45.082111 
	C75.997208,47.303364 79.241470,47.349297 82.639542,45.435211 
	C89.128365,41.780144 97.061241,44.315575 100.412415,51.020275 
	C103.796585,57.790989 100.850784,65.970108 93.911430,68.977219 
	C92.708511,69.498489 91.432877,69.851974 91.202423,69.931938 
	C90.424416,74.613472 90.692795,79.211311 88.799927,82.602959 
	C86.986359,85.852524 82.928902,87.849777 79.430328,90.751854 
	C81.319458,99.091400 78.758232,105.864922 68.155663,108.829506 
	C68.424034,111.260757 68.692970,113.697128 68.882851,116.535004 
M49.693138,87.645546 
	C45.716358,85.375008 41.993847,85.822739 38.766628,88.989548 
	C35.877403,91.824692 34.681801,95.673935 36.982273,98.926865 
	C38.779011,101.467522 42.206417,104.300751 44.936596,104.328682 
	C47.664131,104.356590 51.303085,101.633003 52.968414,99.086311 
	C55.520088,95.184166 53.936584,91.112694 49.693138,87.645546 
M58.477085,98.617912 
	C61.603157,103.928246 64.798004,105.586555 69.279022,104.224037 
	C73.635910,102.899254 75.858475,99.914436 75.922684,95.406616 
	C75.984421,91.071983 73.016342,87.474625 68.712097,86.448639 
	C62.572273,84.985115 57.853188,90.116508 58.477085,98.617912 
M47.791203,118.382111 
	C48.685085,119.552780 49.403957,120.931946 50.504818,121.856056 
	C54.193802,124.952751 59.308937,124.497101 62.584892,120.952919 
	C65.717033,117.564331 65.792152,112.166618 62.755756,108.675034 
	C59.739479,105.206581 54.259422,104.593979 50.617073,107.433502 
	C47.220886,110.081116 46.420502,113.624733 47.791203,118.382111 
M42.936321,77.218674 
	C43.317024,72.466621 41.247074,69.107178 36.829857,67.536491 
	C33.007710,66.177406 29.025234,67.073181 27.260443,70.609360 
	C25.888439,73.358490 25.146278,77.661163 26.392044,80.128151 
	C27.631807,82.583244 31.574396,84.658302 34.557518,85.015572 
	C38.945335,85.541077 41.766964,82.357330 42.936321,77.218674 
M85.515549,71.218872 
	C82.862602,67.645790 79.144249,65.659035 75.178375,67.727531 
	C72.609863,69.067200 70.222908,72.104248 69.288406,74.894432 
	C68.051315,78.588104 69.917480,82.084251 73.524078,84.071259 
	C77.054008,86.016045 80.641701,85.797661 83.697800,83.152710 
	C87.261864,80.068146 87.852371,76.171288 85.515549,71.218872 
M57.174377,67.115005 
	C52.667648,66.773438 48.896961,68.568001 47.881977,72.850067 
	C47.209423,75.687500 47.638912,79.990402 49.429401,81.882576 
	C51.379417,83.943352 55.559940,84.931541 58.610050,84.653587 
	C62.523899,84.296921 64.672943,80.897957 64.905624,76.827911 
	C65.193352,71.795074 62.557339,68.763405 57.174377,67.115005 
M31.958267,57.379768 
	C32.098808,52.612667 29.901930,49.295105 25.314264,48.199520 
	C21.095690,47.192081 16.805634,48.303089 15.401747,52.624794 
	C14.462010,55.517666 14.605006,59.811325 16.199259,62.169476 
	C17.657484,64.326424 21.724283,65.693001 24.626682,65.668198 
	C28.791641,65.632599 31.275061,62.438255 31.958267,57.379768 
M97.909416,56.593258 
	C96.573051,50.081493 93.174812,47.312370 87.416481,48.042892 
	C82.864792,48.620338 79.760155,52.658703 80.049431,57.625595 
	C80.304688,62.008575 83.555351,65.489571 87.809868,65.935921 
	C93.154915,66.496681 96.513336,63.651482 97.909416,56.593258 
M52.137264,62.495411 
	C55.284653,56.491798 53.928936,50.943520 48.745506,48.614639 
	C43.952232,46.461048 38.241112,48.842632 36.578762,53.865223 
	C35.177868,58.097855 36.226990,61.866463 39.942944,64.377502 
	C44.045929,67.150085 48.080822,66.541740 52.137264,62.495411 
M62.116119,64.641602 
	C66.033249,66.782036 69.835297,66.628586 73.116379,63.547531 
	C76.034271,60.807526 76.794762,57.304634 75.270935,53.541023 
	C73.840187,50.007290 71.239326,48.067787 67.270668,47.971935 
	C63.348705,47.877216 60.495857,49.486008 58.925312,53.001541 
	C57.014141,57.279522 57.918964,61.066036 62.116119,64.641602 
M58.024586,30.320574 
	C59.473343,33.430691 65.657455,33.950035 67.997307,30.669266 
	C69.199608,28.983492 69.779007,25.728195 68.936188,24.025475 
	C68.092758,22.321522 64.970459,20.590641 63.133549,20.855833 
	C61.269535,21.124941 59.512428,23.648600 58.193874,25.525787 
	C57.560497,26.427515 58.045273,28.114645 58.024586,30.320574 
M38.881504,12.067748 
	C36.033504,20.701227 40.666256,25.710073 50.809402,23.974821 
	C46.836491,19.944893 43.174843,16.230698 38.881504,12.067748 
M51.872952,10.711194 
	C48.927189,7.702133 45.424652,7.729209 42.418396,8.246131 
	C46.369488,12.107394 50.362518,16.009644 54.536316,20.088547 
	C53.837723,17.231203 53.113674,14.269739 51.872952,10.711194 
z"/>
<path fill="#F4F4F4" opacity="1.000000" stroke="none" 
	d="
M50.007698,87.863708 
	C53.936584,91.112694 55.520088,95.184166 52.968414,99.086311 
	C51.303085,101.633003 47.664131,104.356590 44.936596,104.328682 
	C42.206417,104.300751 38.779011,101.467522 36.982273,98.926865 
	C34.681801,95.673935 35.877403,91.824692 38.766628,88.989548 
	C41.993847,85.822739 45.716358,85.375008 50.007698,87.863708 
z"/>
<path fill="#F4F4F4" opacity="1.000000" stroke="none" 
	d="
M58.344963,98.241562 
	C57.853188,90.116508 62.572273,84.985115 68.712097,86.448639 
	C73.016342,87.474625 75.984421,91.071983 75.922684,95.406616 
	C75.858475,99.914436 73.635910,102.899254 69.279022,104.224037 
	C64.798004,105.586555 61.603157,103.928246 58.344963,98.241562 
z"/>
<path fill="#F7F7F7" opacity="1.000000" stroke="none" 
	d="
M47.609440,118.034576 
	C46.420502,113.624733 47.220886,110.081116 50.617073,107.433502 
	C54.259422,104.593979 59.739479,105.206581 62.755756,108.675034 
	C65.792152,112.166618 65.717033,117.564331 62.584892,120.952919 
	C59.308937,124.497101 54.193802,124.952751 50.504818,121.856056 
	C49.403957,120.931946 48.685085,119.552780 47.609440,118.034576 
z"/>
<path fill="#F7F7F7" opacity="1.000000" stroke="none" 
	d="
M42.908775,77.617599 
	C41.766964,82.357330 38.945335,85.541077 34.557518,85.015572 
	C31.574396,84.658302 27.631807,82.583244 26.392044,80.128151 
	C25.146278,77.661163 25.888439,73.358490 27.260443,70.609360 
	C29.025234,67.073181 33.007710,66.177406 36.829857,67.536491 
	C41.247074,69.107178 43.317024,72.466621 42.908775,77.617599 
z"/>
<path fill="#F7F7F7" opacity="1.000000" stroke="none" 
	d="
M85.709213,71.554764 
	C87.852371,76.171288 87.261864,80.068146 83.697800,83.152710 
	C80.641701,85.797661 77.054008,86.016045 73.524078,84.071259 
	C69.917480,82.084251 68.051315,78.588104 69.288406,74.894432 
	C70.222908,72.104248 72.609863,69.067200 75.178375,67.727531 
	C79.144249,65.659035 82.862602,67.645790 85.709213,71.554764 
z"/>
<path fill="#F8F8F8" opacity="1.000000" stroke="none" 
	d="
M57.562725,67.163742 
	C62.557339,68.763405 65.193352,71.795074 64.905624,76.827911 
	C64.672943,80.897957 62.523899,84.296921 58.610050,84.653587 
	C55.559940,84.931541 51.379417,83.943352 49.429401,81.882576 
	C47.638912,79.990402 47.209423,75.687500 47.881977,72.850067 
	C48.896961,68.568001 52.667648,66.773438 57.562725,67.163742 
z"/>
<path fill="#F8F8F8" opacity="1.000000" stroke="none" 
	d="
M31.945614,57.782055 
	C31.275061,62.438255 28.791641,65.632599 24.626682,65.668198 
	C21.724283,65.693001 17.657484,64.326424 16.199259,62.169476 
	C14.605006,59.811325 14.462010,55.517666 15.401747,52.624794 
	C16.805634,48.303089 21.095690,47.192081 25.314264,48.199520 
	C29.901930,49.295105 32.098808,52.612667 31.945614,57.782055 
z"/>
<path fill="#F8F8F8" opacity="1.000000" stroke="none" 
	d="
M97.909195,56.986687 
	C96.513336,63.651482 93.154915,66.496681 87.809868,65.935921 
	C83.555351,65.489571 80.304688,62.008575 80.049431,57.625595 
	C79.760155,52.658703 82.864792,48.620338 87.416481,48.042892 
	C93.174812,47.312370 96.573051,50.081493 97.909195,56.986687 
z"/>
<path fill="#F9F9F9" opacity="1.000000" stroke="none" 
	d="
M51.901623,62.805069 
	C48.080822,66.541740 44.045929,67.150085 39.942944,64.377502 
	C36.226990,61.866463 35.177868,58.097855 36.578762,53.865223 
	C38.241112,48.842632 43.952232,46.461048 48.745506,48.614639 
	C53.928936,50.943520 55.284653,56.491798 51.901623,62.805069 
z"/>
<path fill="#F9F9F9" opacity="1.000000" stroke="none" 
	d="
M61.809166,64.398056 
	C57.918964,61.066036 57.014141,57.279522 58.925312,53.001541 
	C60.495857,49.486008 63.348705,47.877216 67.270668,47.971935 
	C71.239326,48.067787 73.840187,50.007290 75.270935,53.541023 
	C76.794762,57.304634 76.034271,60.807526 73.116379,63.547531 
	C69.835297,66.628586 66.033249,66.782036 61.809166,64.398056 
z"/>
<path fill="#F2F2F2" opacity="1.000000" stroke="none" 
	d="
M58.024132,29.883335 
	C58.045273,28.114645 57.560497,26.427515 58.193874,25.525787 
	C59.512428,23.648600 61.269535,21.124941 63.133549,20.855833 
	C64.970459,20.590641 68.092758,22.321522 68.936188,24.025475 
	C69.779007,25.728195 69.199608,28.983492 67.997307,30.669266 
	C65.657455,33.950035 59.473343,33.430691 58.024132,29.883335 
z"/>
<path fill="#EEEEEE" opacity="1.000000" stroke="none" 
	d="
M39.197350,12.292125 
	C43.174843,16.230698 46.836491,19.944893 50.809402,23.974821 
	C40.666256,25.710073 36.033504,20.701227 39.197350,12.292125 
z"/>
<path fill="#ECECEC" opacity="1.000000" stroke="none" 
	d="
M52.131287,11.009735 
	C53.113674,14.269739 53.837723,17.231203 54.536316,20.088547 
	C50.362518,16.009644 46.369488,12.107394 42.418396,8.246131 
	C45.424652,7.729209 48.927189,7.702133 52.131287,11.009735 
z"/>
</svg>